<svg height="682pt" viewBox="-146 -21 682 682.66923" width="682pt" xmlns="http://www.w3.org/2000/svg"><path d="m372.339844 630.617188h-370.957032v-11.210938c0-20.71875 16.796876-37.507812 37.511719-37.507812h295.933594c20.722656 0 37.511719 16.789062 37.511719 37.507812zm0 0" fill="#ffbb64"/><path d="m198.109375 292.726562c-7.042969-3.703124-15.453125-3.703124-22.496094 0l-20.464843 10.757813c-4.023438 35.160156-14.59375 81.96875-41.066407 125.503906h145.558594c-26.472656-43.535156-37.039063-90.335937-41.066406-125.503906zm0 0" fill="#ffbb64"/><path d="m334.828125 581.898438h-33.761719c20.71875 0 37.515625 16.789062 37.515625 37.507812v11.210938h33.757813v-11.210938c0-20.71875-16.796875-37.507812-37.511719-37.507812zm0 0" fill="#ffae47"/><path d="m218.574219 303.484375-20.464844-10.757813c-3.039063-1.59375-6.332031-2.503906-9.664063-2.71875 4.640626 38.1875 14.003907 100.453126 37.4375 138.984376h33.757813c-26.472656-43.539063-37.042969-90.339844-41.066406-125.507813zm0 0" fill="#ffae47"/><path d="m298.75 428.988281h-223.777344c-20.714844 0-37.511718 16.796875-37.511718 37.515625v115.394532h298.796874v-115.394532c0-20.71875-16.792968-37.515625-37.507812-37.515625zm0 0" fill="#ffdf65"/><path d="m208.539062 22.851562 33.023438 66.910157c3.519531 7.132812 10.324219 12.078125 18.203125 13.222656l73.832031 10.730469c19.828125 2.882812 27.746094 27.246094 13.398438 41.230468l-53.429688 52.082032c-5.695312 5.554687-8.292968 13.558594-6.953125 21.398437l12.613281 73.535157c3.390626 19.746093-17.339843 34.808593-35.074218 25.484374l-66.039063-34.71875c-7.046875-3.703124-15.457031-3.703124-22.5 0l-66.039062 34.71875c-17.734375 9.324219-38.46875-5.734374-35.078125-25.484374l12.613281-73.535157c1.347656-7.839843-1.257813-15.84375-6.953125-21.398437l-53.429688-52.082032c-14.34375-13.984374-6.429687-38.347656 13.398438-41.230468l73.839844-10.730469c7.875-1.144531 14.675781-6.089844 18.203125-13.222656l33.015625-66.910157c8.867187-17.964843 34.488281-17.964843 43.355468 0zm0 0" fill="#ffdf65"/><g fill="#ffcd2c"><path d="m251.957031 254.542969 24.59375 75.695312c13.605469-.667969 25.285157-13.078125 22.675781-28.277343l-12.613281-73.535157c-1.339843-7.839843 1.257813-15.84375 6.953125-21.394531l53.429688-52.082031c2.695312-2.625 4.601562-5.617188 5.792968-8.761719l-85.902343 62.410156c-14.402344 10.464844-20.433594 29.015625-14.929688 45.945313zm0 0"/><path d="m197.660156 87.429688c5.503906 16.933593 21.277344 28.398437 39.085938 28.398437h103.886718c-2.132812-1.007813-4.484374-1.742187-7.035156-2.113281l-73.839844-10.730469c-7.871093-1.144531-14.675781-6.089844-18.195312-13.222656l-33.023438-66.910157c-6.828124-13.828124-23.570312-17.003906-34.964843-9.542968zm0 0"/><path d="m298.75 428.988281h-33.761719c20.71875 0 37.511719 16.796875 37.511719 37.515625v115.394532h33.757812v-115.394532c0-20.71875-16.792968-37.515625-37.507812-37.515625zm0 0"/></g><path d="m345.636719 573.785156v-39.921875c0-5.179687-4.199219-9.378906-9.378907-9.378906-5.175781 0-9.375 4.199219-9.375 9.378906v38.652344h-280.042968v-106.011719c0-15.515625 12.621094-28.136718 28.132812-28.136718h223.777344c15.511719 0 28.132812 12.621093 28.132812 28.136718v29.851563c0 5.175781 4.199219 9.375 9.375 9.375 5.179688 0 9.378907-4.199219 9.378907-9.375v-29.851563c0-25.855468-21.035157-46.890625-46.886719-46.890625h-33.761719c-19.90625-34.375-29.742187-70.550781-34.570312-99.308593l29.371093 15.445312c11.246094 5.910156 25.0625 4.90625 35.335938-2.558594 10.40625-7.558594 15.523438-20.136718 13.34375-32.8125l-12.609375-73.539062c-.828125-4.800782.765625-9.695313 4.257813-13.09375l53.425781-52.082032c9.207031-8.980468 12.464843-22.15625 8.484375-34.394531-3.972656-12.234375-14.347656-20.984375-27.082032-22.835937l-73.839843-10.726563c-4.816407-.703125-8.984375-3.726562-11.136719-8.097656l-33.023438-66.902344c-5.691406-11.539062-17.21875-18.707031-30.085937-18.707031-12.863281 0-24.394531 7.167969-30.089844 18.707031l-8.558593 17.347657c-2.292969 4.644531-.386719 10.269531 4.257812 12.558593 4.644531 2.289063 10.269531.386719 12.558594-4.257812l8.566406-17.347657c2.546875-5.167968 7.507812-8.253906 13.265625-8.253906 5.761719 0 10.722656 3.085938 13.269531 8.253906l33.019532 66.902344c4.886718 9.902344 14.332031 16.769532 25.261718 18.355469l73.839844 10.726563c5.695312.832031 10.164062 4.59375 11.941406 10.074218 1.777344 5.472656.382813 11.148438-3.746094 15.164063l-53.425781 52.082031c-7.910156 7.710938-11.519531 18.8125-9.648437 29.695312l12.613281 73.539063c.972656 5.679687-1.226563 11.089844-5.890625 14.472656-4.65625 3.386719-10.480469 3.808594-15.578125 1.125l-66.042969-34.71875c-9.773437-5.140625-21.449218-5.140625-31.230468 0 0 0-20.421876 10.742188-20.4375 10.75l-45.601563 23.96875c-5.097656 2.683594-10.921875 2.261719-15.582031-1.125-4.65625-3.382812-6.859375-8.792969-5.886719-14.472656l12.617187-73.539063c1.863282-10.882812-1.742187-21.984374-9.652343-29.695312l-53.429688-52.082031c-4.121093-4.015625-5.519531-9.6875-3.742187-15.164063 1.78125-5.480468 6.242187-9.242187 11.945312-10.074218l73.832032-10.726563c10.933593-1.585937 20.378906-8.449219 25.265624-18.355469l7.875-15.953125c2.289063-4.648437.386719-10.265625-4.257812-12.5625-4.648438-2.289062-10.269531-.386719-12.5625 4.257813l-7.871094 15.957031c-2.160156 4.371094-6.324218 7.398437-11.144531 8.097656l-73.835937 10.726563c-12.730469 1.851562-23.109376 10.601562-27.085938 22.835937-3.972656 12.238281-.722656 25.414063 8.492188 34.394531l53.425781 52.082032c3.488281 3.398437 5.078125 8.292968 4.253906 13.09375l-12.613281 73.539062c-2.171875 12.679688 2.941406 25.253906 13.351562 32.816406 10.40625 7.558594 23.945313 8.542969 35.335938 2.554688l29.375-15.445312c-1.511719 9.058593-3.367188 17.984374-5.5625 26.679687-1.214844 4.820313 1.679687 9.894531 6.457031 11.289063 5.039063 1.480468 10.449219-1.609376 11.734375-6.703126 3.425781-13.609374 6.082031-27.738281 7.917969-42.066406l16.117187-8.476562c4.3125-2.265625 9.460938-2.265625 13.769532 0l16.113281 8.472656c3.824219 29.757812 12.820312 70.460938 33.710937 110.113281h-113.417968c5.234374-9.921875 9.972656-20.328125 14.117187-31.097656 1.859375-4.835937-.550781-10.265625-5.386719-12.121094-4.832031-1.863281-10.257812.546875-12.117187 5.382813-5.121094 13.3125-11.183594 26.015625-18.027344 37.835937h-33.761719c-25.855468 0-46.886718 21.035157-46.886718 46.894531v107.285157c-20.660157 4.890625-36.085938 23.480469-36.085938 45.617187v11.210938c0 5.183594 4.199219 9.382812 9.382812 9.382812h370.957032c5.175781 0 9.375-4.199218 9.375-9.382812v-11.210938c.007812-22.136718-15.417969-40.726562-36.078125-45.625zm17.324219 47.457032h-352.199219v-1.835938c0-15.511719 12.617187-28.132812 28.132812-28.132812h295.933594c15.515625 0 28.132813 12.621093 28.132813 28.132812zm0 0"/><path d="m131.261719 467.640625h-14.207031c-5.179688 0-9.378907 4.199219-9.378907 9.378906v56.84375c0 5.183594 4.199219 9.382813 9.378907 9.382813h20.277343c13.007813 0 23.589844-10.585938 23.589844-23.59375 0-7.261719-3.304687-13.761719-8.480469-18.09375 1.527344-3.121094 2.410156-6.617188 2.410156-10.328125 0-13.003907-10.582031-23.589844-23.589843-23.589844zm-4.832031 18.757813h4.832031c2.667969 0 4.835937 2.167968 4.835937 4.832031 0 2.664062-2.167968 4.832031-4.835937 4.832031h-4.832031zm10.902343 38.085937h-10.902343v-9.664063h10.902343c2.660157 0 4.835938 2.167969 4.835938 4.832032 0 2.664062-2.167969 4.832031-4.835938 4.832031zm0 0"/><path d="m210.433594 486.398438c5.179687 0 9.378906-4.199219 9.378906-9.378907 0-5.179687-4.199219-9.378906-9.378906-9.378906h-30.34375c-5.179688 0-9.378906 4.199219-9.378906 9.378906v56.84375c0 5.183594 4.199218 9.382813 9.378906 9.382813 5.183594 0 9.382812-4.199219 9.382812-9.382813v-19.042969h14.203125c5.175781 0 9.375-4.199218 9.375-9.378906 0-5.179687-4.199219-9.378906-9.375-9.378906h-14.203125v-9.664062zm0 0"/><path d="m268.046875 486.398438c5.175781 0 9.375-4.199219 9.375-9.378907 0-5.179687-4.199219-9.378906-9.375-9.378906h-30.347656c-5.175781 0-9.375 4.199219-9.375 9.378906v56.84375c0 5.183594 4.199219 9.382813 9.375 9.382813 5.179687 0 9.378906-4.199219 9.378906-9.382813v-19.042969h14.203125c5.183594 0 9.375-4.199218 9.375-9.378906 0-5.179687-4.191406-9.378906-9.375-9.378906h-14.203125v-9.664062zm0 0"/></svg>